<?xml version="1.0" standalone="no"?>
<!DOCTYPE svg PUBLIC "-//W3C//DTD SVG 20010904//EN"
 "http://www.w3.org/TR/2001/REC-SVG-20010904/DTD/svg10.dtd">
<svg version="1.0" xmlns="http://www.w3.org/2000/svg"
 width="1024.000000pt" height="1024.000000pt" viewBox="0 0 1024.000000 1024.000000"
 preserveAspectRatio="xMidYMid meet">

<g transform="translate(0.000000,1024.000000) scale(0.100000,-0.100000)"
fill="#000000" stroke="none">
<path d="M3339 8359 c-362 -26 -656 -125 -894 -301 -170 -127 -336 -330 -424
-520 -44 -96 -93 -246 -115 -358 -41 -206 -41 -195 -41 -2050 l0 -1785 22
-140 c64 -399 199 -677 437 -903 242 -228 541 -356 951 -404 163 -19 3539 -19
3705 0 403 48 694 173 936 405 198 189 322 401 393 669 74 281 80 431 80 2138
0 1441 -7 1818 -38 2005 -57 338 -179 582 -401 805 -270 272 -589 404 -1055
439 -162 13 -3386 13 -3556 0z m193 -1429 l30 0 -4 -90 -3 -90 -35 0 c-19 0
-59 3 -87 6 l-53 7 0 90 0 90 61 -7 c34 -3 75 -6 91 -6z m-204 -450 l-3 -90
-87 0 -88 0 0 90 0 90 91 0 90 0 -3 -90z m392 -142 c101 -124 170 -306 170
-446 0 -63 -24 -161 -55 -226 -44 -92 -122 -184 -407 -474 -301 -307 -381
-404 -438 -527 -49 -104 -60 -155 -60 -263 0 -100 17 -171 61 -249 16 -29 29
-55 29 -58 0 -33 -138 78 -203 164 -199 265 -193 617 15 924 63 93 148 188
353 397 263 269 320 331 376 418 66 101 89 178 89 303 0 56 4 99 10 99 5 0 32
-28 60 -62z m1513 -32 c40 -19 66 -41 85 -69 24 -36 27 -50 27 -123 0 -91 -13
-119 -74 -161 -30 -20 -31 -22 -10 -28 37 -12 98 -75 109 -113 23 -84 3 -182
-48 -235 -64 -68 -149 -86 -389 -87 l-153 0 0 426 0 426 198 -4 c193 -3 199
-4 255 -32z m1127 -106 l0 -80 78 0 79 0 -1 -62 -1 -61 -77 2 -78 2 0 -158 c0
-203 2 -207 93 -211 l67 -3 0 -63 c0 -63 0 -64 -31 -70 -49 -9 -135 -7 -166 5
-15 5 -41 22 -57 37 -52 49 -59 81 -63 277 l-4 180 -44 3 -45 3 0 60 0 59 45
0 45 0 0 80 0 80 80 0 80 0 0 -80z m-3362 -102 l3 -88 -91 0 -90 0 0 91 0 91
88 -4 87 -3 3 -87z m3969 27 c112 -33 182 -135 191 -277 l5 -78 -213 0 -212 0
7 -37 c16 -86 58 -123 141 -123 39 0 51 5 81 35 34 34 38 35 110 35 72 0 74
-1 68 -22 -4 -13 -18 -40 -31 -60 -117 -182 -426 -146 -505 60 -28 74 -31 204
-5 279 53 158 202 236 363 188z m607 4 c65 -18 113 -57 141 -113 l26 -51 -76
-3 c-72 -3 -76 -2 -99 25 -21 24 -32 28 -74 28 -57 0 -92 -23 -92 -61 0 -32
30 -49 136 -80 120 -34 171 -65 195 -117 87 -193 -163 -351 -380 -240 -55 28
-99 81 -116 141 -6 21 -4 22 66 22 71 0 72 -1 104 -37 30 -35 37 -38 88 -38
65 0 97 22 97 66 0 37 -22 50 -140 83 -52 15 -112 38 -132 51 -88 58 -99 180
-25 262 56 61 184 89 281 62z m-1936 -122 c22 -62 55 -158 73 -214 19 -56 36
-102 39 -103 3 0 36 93 74 208 38 114 72 211 76 215 4 4 43 7 88 5 l81 -3 -85
-225 c-203 -543 -219 -576 -301 -612 -37 -16 -60 -19 -113 -16 -37 3 -72 8
-79 12 -6 4 -11 33 -11 65 l0 57 60 -4 c55 -4 61 -2 89 26 55 55 55 57 -73
378 -65 161 -120 301 -122 311 -5 16 3 18 80 15 l84 -3 40 -112z m-2868 -304
l0 -88 -85 3 -85 3 0 85 0 84 85 0 85 0 0 -87z m1316 -321 c14 -133 -28 -231
-167 -390 -94 -107 -137 -135 -209 -136 l-45 -1 -3 105 -3 105 97 105 c166
180 225 253 252 313 l27 57 23 -48 c12 -27 25 -77 28 -110z m-1536 -222 l0
-90 -84 0 -85 0 -3 85 c-3 97 -10 91 110 94 l62 1 0 -90z m3030 -375 l0 -425
-80 0 -80 0 0 420 0 419 78 4 c42 1 78 4 80 5 1 1 2 -189 2 -423z m-270 345
l0 -70 -180 0 -180 0 0 -110 0 -110 165 0 165 0 0 -70 0 -70 -165 0 -165 0 0
-170 0 -170 -80 0 -80 0 0 420 0 420 260 0 260 0 0 -70z m754 -144 c62 -19
111 -57 139 -109 21 -40 22 -56 25 -279 l4 -238 -71 0 c-72 0 -78 4 -72 43 2
11 -6 9 -43 -17 -105 -71 -259 -47 -322 49 -47 71 -35 174 26 235 50 50 105
64 228 58 l98 -5 -6 53 c-7 61 -19 79 -66 94 -47 16 -90 4 -116 -31 -21 -27
-26 -29 -96 -29 l-74 0 7 28 c10 41 43 89 77 113 65 47 174 61 262 35z m1090
0 c120 -36 196 -153 196 -303 l0 -53 -211 0 -212 0 6 -42 c10 -77 58 -118 140
-118 43 0 54 5 84 35 34 34 38 35 109 35 l74 0 -14 -35 c-26 -60 -66 -104
-124 -132 -49 -24 -69 -28 -137 -27 -95 0 -136 16 -198 73 -89 82 -120 231
-78 371 49 161 204 244 365 196z m-444 -69 l0 -73 -67 -11 c-55 -10 -73 -18
-95 -43 l-28 -30 0 -200 0 -200 -80 0 -80 0 0 310 0 310 75 0 75 0 0 -47 0
-48 21 32 c25 39 91 73 142 73 l37 0 0 -73z m-2476 -187 c0 -147 -2 -159 -30
-237 -42 -111 -87 -182 -168 -264 -123 -124 -296 -211 -483 -244 -97 -17 -206
-20 -201 -5 2 5 109 116 239 247 240 243 491 516 576 628 40 52 50 60 58 46 6
-9 10 -84 9 -171z m-696 24 c2 -1 1 -41 -3 -88 l-7 -86 -83 0 c-45 0 -84 2
-86 4 -2 2 -3 45 -1 94 l3 90 87 -5 c48 -3 89 -7 90 -9z m-249 -269 c2 -2 0
-40 -4 -84 l-7 -81 -84 0 -84 0 0 74 c0 41 2 80 5 88 4 10 25 12 88 10 45 -2
84 -6 86 -7z m2718 -473 c44 -32 63 -79 63 -159 0 -120 -63 -189 -163 -180
-60 5 -95 30 -124 87 -36 70 -25 177 24 232 45 51 143 61 200 20z m1137 14
c37 -16 76 -60 76 -87 0 -32 -52 -25 -78 11 -27 36 -76 41 -113 11 -22 -18
-24 -27 -24 -106 0 -79 2 -88 24 -106 37 -30 86 -25 113 11 15 21 30 30 50 30
36 0 37 -27 3 -69 -31 -36 -84 -55 -136 -48 -83 11 -129 77 -129 185 0 137
100 216 214 168z m-2304 -171 l0 -175 -35 0 -35 0 0 175 0 175 35 0 35 0 0
-175z m283 58 l77 -117 0 117 0 117 35 0 35 0 0 -175 0 -175 -32 0 c-31 0 -39
9 -113 118 l-80 117 -3 -117 -3 -118 -29 0 -30 0 0 175 0 175 33 0 c30 0 37
-8 110 -117z m507 92 c0 -24 -2 -25 -75 -25 l-75 0 0 -50 0 -50 70 0 c68 0 70
-1 70 -25 0 -24 -2 -25 -70 -25 l-70 0 0 -75 0 -75 -35 0 -35 0 0 175 0 175
110 0 110 0 0 -25z m810 0 c0 -23 -4 -25 -45 -25 l-45 0 0 -150 0 -150 -35 0
-35 0 0 150 0 150 -45 0 c-41 0 -45 2 -45 25 l0 25 125 0 125 0 0 -25z m360 0
c0 -25 -1 -25 -80 -25 l-80 0 0 -45 0 -45 70 0 70 0 0 -30 0 -30 -70 0 -70 0
0 -50 0 -50 80 0 c79 0 80 0 80 -25 l0 -25 -115 0 -115 0 0 175 0 175 115 0
115 0 0 -25z m620 -45 l0 -70 75 0 75 0 0 70 0 70 33 0 32 0 0 -175 0 -175
-32 0 -33 0 0 75 0 75 -75 0 -75 0 0 -75 0 -75 -35 0 -35 0 0 175 0 175 35 0
35 0 0 -70z"/>
<path d="M4940 6096 l0 -106 84 0 c70 0 88 4 116 23 58 39 61 120 6 161 -22
17 -46 22 -117 24 l-89 4 0 -106z"/>
<path d="M4940 5745 l0 -115 79 0 c103 0 136 7 166 38 20 20 25 35 25 74 0 94
-36 118 -180 118 l-90 0 0 -115z"/>
<path d="M6795 5988 c-25 -20 -55 -73 -55 -98 0 -6 49 -10 134 -10 l134 0 -10
40 c-15 60 -57 90 -122 90 -40 0 -60 -6 -81 -22z"/>
<path d="M2610 5705 l0 -75 75 0 75 0 0 75 0 75 -75 0 -75 0 0 -75z"/>
<path d="M2433 5233 l-43 -4 0 -75 0 -75 70 3 70 2 0 78 0 78 -27 -2 c-16 -1
-47 -3 -70 -5z"/>
<path d="M5941 4630 c-121 -18 -118 -160 3 -160 85 0 126 39 126 120 0 37 -2
40 -27 41 -16 0 -35 2 -43 3 -8 1 -35 -1 -59 -4z"/>
<path d="M6986 4849 c-28 -22 -56 -68 -56 -94 0 -13 19 -15 130 -15 124 0 130
1 130 20 0 29 -26 76 -52 94 -34 24 -119 21 -152 -5z"/>
<path d="M4184 4857 c-46 -71 -300 -346 -552 -599 -146 -147 -263 -271 -259
-275 14 -13 223 19 311 48 95 32 191 79 224 109 11 10 22 17 24 15 5 -6 126
110 162 155 36 45 88 148 81 160 -3 4 0 10 6 12 18 6 49 157 49 239 0 85 -9
169 -19 169 -3 0 -15 -15 -27 -33z"/>
<path d="M3126 4458 c-3 -13 -6 -46 -6 -73 l0 -51 75 -3 75 -2 0 53 c0 29 3
63 6 76 6 21 4 22 -69 22 -69 0 -75 -2 -81 -22z"/>
<path d="M5859 3954 c-21 -22 -24 -35 -24 -101 0 -70 2 -76 28 -99 33 -28 76
-31 106 -6 25 20 40 97 30 156 -12 74 -91 102 -140 50z"/>
</g>
</svg>
